<?xml version="1.0" encoding="UTF-8"?>
<svg id="Layer_1" data-name="Layer 1" xmlns="http://www.w3.org/2000/svg" xmlns:xlink="http://www.w3.org/1999/xlink" viewBox="0 0 245.15 285.86">
  <defs>
    <style>
      .cls-1 {
        fill: #fff;
      }

      .cls-2 {
        fill: url(#Gold);
      }

      .cls-3 {
        fill: url(#linear-gradient-3);
        opacity: .12;
      }

      .cls-4 {
        fill: url(#linear-gradient-2);
        opacity: .17;
      }

      .cls-5 {
        fill: url(#Red_Orange);
      }

      .cls-6 {
        fill: #c8d0ce;
      }

      .cls-7 {
        fill: #423434;
      }

      .cls-8 {
        fill: url(#linear-gradient);
      }
    </style>
    <linearGradient id="Red_Orange" data-name="Red Orange" x1="46.34" y1="57.38" x2="227.87" y2="57.38" gradientUnits="userSpaceOnUse">
      <stop offset="0" stop-color="#f37e5f"/>
      <stop offset=".5" stop-color="#ec1c24"/>
      <stop offset="1" stop-color="#cf232a"/>
    </linearGradient>
    <linearGradient id="Gold" x1="0" y1="161.99" x2="68.83" y2="161.99" gradientUnits="userSpaceOnUse">
      <stop offset="0" stop-color="#ffe7a3"/>
      <stop offset=".5" stop-color="#ffca05"/>
      <stop offset="1" stop-color="#faac18"/>
    </linearGradient>
    <linearGradient id="linear-gradient" x1="64.69" y1="227.47" x2="179.39" y2="227.47" gradientUnits="userSpaceOnUse">
      <stop offset="0" stop-color="#f37e5f"/>
      <stop offset=".5" stop-color="#ec1c24"/>
      <stop offset="1" stop-color="#cf232a"/>
    </linearGradient>
    <linearGradient id="linear-gradient-2" x1="46.34" y1="67.7" x2="227.86" y2="67.7" gradientUnits="userSpaceOnUse">
      <stop offset="0" stop-color="#c3664c"/>
      <stop offset=".5" stop-color="#b31217"/>
      <stop offset="1" stop-color="#9d161a"/>
    </linearGradient>
    <linearGradient id="linear-gradient-3" x1="-.39" y1="169.97" x2="68.82" y2="169.97" gradientUnits="userSpaceOnUse">
      <stop offset="0" stop-color="#c9b883"/>
      <stop offset=".5" stop-color="#ffcb05"/>
      <stop offset="1" stop-color="#bc830e"/>
    </linearGradient>
  </defs>
  <path class="cls-5" d="m47.49,112.61c-1.94-2.24-1.17-6.57.45-15.13,1.86-9.86,4.13-21.89,8.46-22.25,4.37-.37,6.71,11.48,10.24,11.13,6.63-.66,4.83-43.15,12.91-44.51,6.52-1.09,12.73,25.7,21.81,24.92,6.65-.57,10.6-15.96,12.91-24.92,2.52-9.78,4.09-15.87,1.97-23.31-1.28-4.48-3.71-8.77-1.97-10.52,1.62-1.62,5.72.07,6.68.45,7.86,3.1,14.1,12.61,16.47,23.14,2.6,11.57-.35,20.69,4.45,23.14.33.17,1.42.71,2.67.45,4.35-.91,5.69-10.42,6.23-13.8C153.55,23.76,162.15-.59,165.72.01c2.43.41-.79,17.74,7.12,39.76,0,0,5.25,14.64,11.27,14.84,4.63.15,7.35-2.32,7.35-2.32.09-.09.16-.15.21-.2,7.03-6.88,11.53-15.64,11.53-15.64,3.95-7.7,5.34-14.41,6.28-19.08,2.26-11.3,1.04-16.57,2.67-16.91,3.04-.63,9.54,16.34,12.91,29.82,1.95,7.8,3.08,12.48,2.74,19.1-.17,3.29-1.05,13.82-7.5,23.84-8.49,13.18-21.69,17.8-34.14,22.16-17.82,6.24-33.34,6.27-41.9,6.21-20.72-.13-21.9-4.61-36.32-2.27-9.42,1.53-9.82,3.48-32.43,10.18-12.12,3.59-23.83,7.97-28.04,3.12Z"/>
  <path class="cls-2" d="m67.88,144.18c-4.19-6.09-24.1-.71-37.58,6.53-5.02,2.7-16.74,8.87-25.67,21.59-2.24,3.19-5.68,8.1-4.32,9.75,2.52,3.05,16.15-12.5,36.65-12.83,16.45-.27,26.69,7.63,31.15,2.44.81-.94.91-1.71.46-22.81-.05-2.54-.09-3.82-.69-4.68Z"/>
  <path class="cls-7" d="m123.58,141.53c0,8.19-6.64,14.83-14.83,14.83s-15.47-6.64-15.47-14.83,7.28-14.83,15.47-14.83,14.83,6.64,14.83,14.83Z"/>
  <path class="cls-1" d="m106.91,141.53c0,2.9-2.35,5.24-5.24,5.24s-5.24-2.35-5.24-5.24,2.99-5.24,5.89-5.24,4.6,2.35,4.6,5.24Z"/>
  <path class="cls-6" d="m75.06,132.37c-2.46-1.57-1.75-8.77,1.45-13.77,3.02-4.73,7.59-6.42,16.1-9.43,5.16-1.83,12.36-4.31,22.11-4.63,3-.1,8.41.38,19.25,1.33,11.28.99,9.93,1.13,12.24,1.12,10.9-.03,14.54-3.02,22.31-1.19,3.67.87,6.19,2.32,8.41,3.63,5.34,3.14,23.42,10.03,32.25,42.49,5.96,21.93,10.35,28.51,9.78,33.63-1.15,10.31-6.56,21.5-10.39,21.09-2.66-.28-3.78-6.08-5.5-12.84,0,0-6.4-25.08-18.95-47.99-5.73-10.45-18.01-29.01-25.34-26.75-4.92,1.52-7.29,12.19-7.97,15.13-1.81,7.72-.04,12.5-3.14,14.76-3.72,2.71-10.6-1.02-11.2-1.31-11.48-5.52-7.14-19.44-17.12-25.68-9.72-6.08-24.64.14-27.23,1.22-9.88,4.12-14.47,10.83-17.04,9.18Z"/>
  <path class="cls-8" d="m74.67,175.15c-10.98,40.07-12.49,72.34-6.56,85.47,3.09,6.84,7.71,12.04,7.71,12.04,3.45,3.88,9.69,11.24,19.95,12.84,13.45,2.1,23.75-5.61,26.37-7.57,1.96-1.47,7.99-6.28,11.92-14.67,5.24-11.2,3.88-22.65,3.67-24.3-.3-2.26-.95-5.77-1.15-11.23-.08-2.39-.36-10.1.92-10.32.85-.14,1.73,3.17,4.59,9.63,3.59,8.11,5.45,12.2,8.71,13.99,4.99,2.73,11.04.35,11.92,0,9.13-3.59,12.29-14.42,14.44-21.78,3.44-11.79,2.14-21.55,1.15-28.43-1.7-11.78-2.55-17.67-6.88-20.4-7.8-4.93-18.14,5.1-36.68,9.63-15.61,3.81-29.66,1.92-39.43-.46"/>
  <path class="cls-4" d="m225.06,29.97c-.73-2.91-1.6-5.99-2.56-9.01-1.34,8.75-4.24,17.32-8.12,25-3.84,7.61-8.39,12.48-11.41,15.83-2.3,2.55-5.72,6.29-10.68,10.09-8.05,6.16-15.45,8.84-22.21,11.23-5.2,1.84-15.89,5.53-30.32,6.3-14.07.75-14.87-2.01-30.19-1.2-5.18.27-13.62.77-23.84,4.01-8.06,2.55-10.86,4.62-23.22,9.61-5.25,2.12-10.56,4.67-16.16,5.68-.09,2.21.21,3.74,1.13,4.79,4.2,4.86,15.92.47,28.04-3.12,22.61-6.7,23.01-8.65,32.43-10.18,14.42-2.34,15.59,2.14,36.32,2.27,8.56.06,24.08.03,41.9-6.21,12.45-4.36,25.65-8.98,34.14-22.16,6.46-10.02,7.33-20.54,7.5-23.84.34-6.62-.79-11.3-2.74-19.1Z"/>
  <path class="cls-3" d="m48.55,157.66c-4.13-.3-19.12-1.15-33.41,8.75-7.46,5.17-12.06,11.41-14.75,15.97,1.72.6,5.9-2.6,12.08-6,7.11-3.91,15.82-6.97,24.1-7.14,3.51-.07,7.11.32,7.11.32,3.03.33,5.4.84,7.26,1.24,2.35.51,2.63.67,7.28,1.78,3.83.92,5.74,1.31,7.82.51,1.57-.61,2.15-1.47,2.3-1.73.48-.79.52-1.58.47-3.23-.04-1.32-.14-3.05-.37-5.09-4.16-2.03-11.03-4.74-19.88-5.38Z"/>
</svg>